<svg width="1809" height="629" viewBox="0 0 1809 629" fill="none" xmlns="http://www.w3.org/2000/svg">
<g clip-path="url(#clip0_600_10)">
<path d="M1405.51 170.334C1401.93 170.753 1398.42 171.623 1395.06 172.924C1391.72 174.238 1388.54 175.93 1385.58 177.968M1445.23 182.582C1450.2 186.898 1454.17 192.212 1456.57 198.331C1465.42 220.927 1451.6 244.573 1426.92 254.241C1402.24 263.909 1376.25 256.502 1367.18 233.347C1364.69 226.989 1363.81 220.538 1364.26 214.303M1364.05 214.384C1364.05 214.384 1343.12 184.946 1348.87 179.295C1354.62 173.643 1371.22 170.541 1384.04 177.241M1445.6 182.449C1445.6 182.449 1440.97 146.63 1432.91 146.386C1424.85 146.142 1410.56 155.14 1405.69 168.771M1393.12 226.446L1394.11 228.987M1432.85 210.883L1433.84 213.425" stroke="#D1E9FF" stroke-opacity="0.5" stroke-width="2" stroke-linecap="round" stroke-linejoin="round"/>
<path d="M1413.74 231.559L1421.19 228.641L1418.95 233.911L1413.74 231.559Z" stroke="#D1E9FF" stroke-opacity="0.5" stroke-width="2" stroke-linecap="round" stroke-linejoin="round"/>
</g>
<path d="M557.91 277.551C554.477 276.454 550.923 275.798 547.33 275.598C543.745 275.416 540.151 275.644 536.614 276.278M589.035 305.109C591.777 311.09 593.2 317.57 592.857 324.133C591.589 348.368 569.238 364.197 542.768 362.812C516.297 361.427 495.689 343.952 496.988 319.118C497.345 312.298 499.209 306.061 502.188 300.565M501.965 300.554C501.965 300.554 495.061 265.102 502.629 262.328C510.198 259.554 526.597 263.582 535.512 274.98M589.428 305.14C589.428 305.14 599.994 270.603 592.756 267.054C585.518 263.505 568.789 265.8 558.728 276.205M523.46 323.541L523.317 326.267M566.068 325.771L565.925 328.496" stroke="#D1E9FF" stroke-opacity="0.5" stroke-width="2" stroke-linecap="round" stroke-linejoin="round"/>
<path d="M540.127 336.711L548.117 337.129L543.908 341.009L540.127 336.711Z" stroke="#D1E9FF" stroke-opacity="0.5" stroke-width="2" stroke-linecap="round" stroke-linejoin="round"/>
<g clip-path="url(#clip1_600_10)">
<path d="M194.171 420.891C190.572 418.911 186.743 417.442 182.772 416.518C178.806 415.616 174.74 415.209 170.65 415.305M222.987 460.151C224.757 467.91 224.945 476.022 223.141 483.898C216.481 512.983 188.081 527.891 158.803 521.186C129.525 514.481 110.278 489.419 117.103 459.615C118.977 451.431 122.41 444.238 126.928 438.154M126.681 438.097C126.681 438.097 126.637 393.886 135.695 391.967C144.752 390.048 162.204 398.038 169.7 413.524M223.42 460.264C223.42 460.264 242.699 420.479 235.379 414.809C228.06 409.14 208.87 408.738 195.376 419.418M145.725 469.997L144.976 473.268M192.853 480.79L192.104 484.061" stroke="#D1E9FF" stroke-opacity="0.6" stroke-width="2" stroke-linecap="round" stroke-linejoin="round"/>
<path d="M161.5 489.101L170.336 491.124L164.795 495.019L161.5 489.101Z" stroke="#D1E9FF" stroke-opacity="0.6" stroke-width="2" stroke-linecap="round" stroke-linejoin="round"/>
</g>
<g clip-path="url(#clip2_600_10)">
<path d="M1207.55 492.27C1203.96 490.291 1200.13 488.822 1196.16 487.897C1192.19 486.996 1188.12 486.589 1184.03 486.684M1236.37 531.531C1238.14 539.289 1238.33 547.401 1236.52 555.277C1229.86 584.362 1201.46 599.27 1172.19 592.565C1142.91 585.86 1123.66 560.799 1130.49 530.994C1132.36 522.811 1135.79 515.617 1140.31 509.533M1140.06 509.476C1140.06 509.476 1140.02 465.266 1149.08 463.347C1158.14 461.428 1175.59 469.418 1183.08 484.904M1236.8 531.644C1236.8 531.644 1256.08 491.858 1248.76 486.189C1241.44 480.519 1222.25 480.118 1208.76 490.797M1159.11 541.377L1158.36 544.648M1206.24 552.169L1205.49 555.44" stroke="#D1E9FF" stroke-opacity="0.5" stroke-width="2" stroke-linecap="round" stroke-linejoin="round"/>
<path d="M1174.88 560.48L1183.72 562.504L1178.18 566.398L1174.88 560.48Z" stroke="#D1E9FF" stroke-opacity="0.5" stroke-width="2" stroke-linecap="round" stroke-linejoin="round"/>
</g>
<g clip-path="url(#clip3_600_10)">
<path d="M1727.03 367.228C1722.36 365.09 1717.45 363.534 1712.4 362.593C1707.36 361.679 1702.24 361.324 1697.12 361.536M1766.25 410.708C1769.08 419.399 1769.96 428.53 1768.33 437.446C1762.31 470.369 1727.93 487.88 1690.73 481.075C1653.53 474.269 1627.42 446.536 1633.59 412.798C1635.29 403.534 1639.02 395.346 1644.19 388.38M1643.87 388.322C1643.87 388.322 1640.29 338.536 1651.48 336.144C1662.68 333.752 1685.17 342.306 1695.79 359.555M1766.8 410.824C1766.8 410.824 1787.77 365.529 1778.15 359.33C1768.53 353.132 1744.47 353.169 1728.42 365.539M1670.27 423.762L1669.59 427.464M1730.15 434.716L1729.47 438.419" stroke="#D1E9FF" stroke-opacity="0.5" stroke-width="2" stroke-linecap="round" stroke-linejoin="round"/>
<path d="M1691.55 444.874L1702.78 446.928L1696.15 451.454L1691.55 444.874Z" stroke="#D1E9FF" stroke-opacity="0.5" stroke-width="2" stroke-linecap="round" stroke-linejoin="round"/>
</g>
<g clip-path="url(#clip4_600_10)">
<path d="M79.9003 44.0038C76.3037 44.2302 72.7549 44.9113 69.3352 46.0313C65.9295 47.1651 62.6639 48.6845 59.5992 50.5615M118.915 58.3585C123.644 62.9331 127.327 68.4524 129.393 74.6909C137.024 97.7278 121.958 120.6 96.7959 128.935C71.6336 137.27 46.0816 128.483 38.2622 104.877C36.1151 98.3946 35.584 91.9063 36.361 85.7034M36.1484 85.7738C36.1484 85.7738 16.8268 55.259 22.8687 49.9227C28.9106 44.5864 45.6514 42.3763 58.1008 49.7525M119.294 58.2448C119.294 58.2448 116.578 22.2294 108.545 21.5552C100.512 20.8809 85.7625 29.1016 80.1731 42.4529M64.5306 99.3726L65.3887 101.963M105.033 85.9567L105.891 88.5475" stroke="#D1E9FF" stroke-opacity="0.6" stroke-width="2" stroke-linecap="round" stroke-linejoin="round"/>
<path d="M84.8467 105.581L92.4409 103.065L89.931 108.209L84.8467 105.581Z" stroke="#D1E9FF" stroke-opacity="0.6" stroke-width="2" stroke-linecap="round" stroke-linejoin="round"/>
</g>
<defs>
<clipPath id="clip0_600_10">
<rect width="128" height="131" fill="white" transform="translate(1325.52 170.856) rotate(-21.3919)"/>
</clipPath>
<clipPath id="clip1_600_10">
<rect width="145.044" height="161.066" fill="white" transform="translate(119.57 367.621) rotate(12.8985)"/>
</clipPath>
<clipPath id="clip2_600_10">
<rect width="145.044" height="161.066" fill="white" transform="translate(1132.95 439) rotate(12.8985)"/>
</clipPath>
<clipPath id="clip3_600_10">
<rect width="182.631" height="180.671" fill="white" transform="translate(1629.35 309.136) rotate(10.3666)"/>
</clipPath>
<clipPath id="clip4_600_10">
<rect width="128" height="131" fill="white" transform="translate(0 40.2476) rotate(-18.3267)"/>
</clipPath>
</defs>
</svg>
