<svg width="66" height="64" viewBox="0 0 66 64" fill="none" xmlns="http://www.w3.org/2000/svg">
<path d="M56.5 10.6603L61.5 7.90019L37.0769 1L7.62637 14.0989L1 40.2966L21.6154 62.6417H53.2747L64.5 49.7614H58.5L51.0659 58.7891H23.0879L5.41758 39.5261L12.044 15.6399L37.0769 5.62313L56.5 10.6603Z" fill="#112B66" stroke="#112B66"/>
<path d="M25.8275 27.4965L37.5 33.3847L55 24.5525L37.5 15.7202L20 24.5525H37.5V27.4965H25.8275ZM20 27.4965V39.2729L23.5 36.0049V29.263L20 27.4965ZM37.5 45.161L28.75 40.7449L25.25 38.9785V30.1462L37.5 36.3288L49.75 30.1462V38.9785L37.5 45.161Z" fill="#112B66"/>
</svg>
