<svg width="533" height="407" viewBox="0 0 533 407" fill="none" xmlns="http://www.w3.org/2000/svg">
<g clip-path="url(#clip0_603_144)">
<path d="M524.654 87.5177C529.263 87.5177 533 84.6647 533 81.1448V33.5624C533 15.0566 513.282 0 489.047 0H43.9527C19.7179 0 0 15.0566 0 33.5624V298.665C0 317.171 19.7179 332.227 43.9527 332.227H226.803L222.935 394.254H186.383C181.775 394.254 178.038 397.107 178.038 400.627C178.038 404.146 181.774 407 186.383 407H346.617C351.225 407 354.962 404.147 354.962 400.627C354.962 397.108 351.226 394.254 346.617 394.254H310.065L306.198 332.227H489.047C513.283 332.227 533 317.171 533 298.665V115.133C533 111.613 529.264 108.76 524.654 108.76C520.046 108.76 516.308 111.613 516.308 115.133V278.697H186.383C181.775 278.697 178.038 281.55 178.038 285.07C178.038 288.59 181.774 291.443 186.383 291.443H516.309V298.666C516.309 310.144 504.08 319.483 489.047 319.483H43.9527C28.9205 319.483 16.6906 310.144 16.6906 298.666V291.443H141.874C146.482 291.443 150.22 288.59 150.22 285.07C150.22 281.55 146.483 278.697 141.874 278.697H16.6906V53.53H516.308V81.1448C516.309 84.6647 520.046 87.5177 524.654 87.5177ZM243.512 332.227H289.486L293.355 394.254H239.645L243.512 332.227ZM16.6906 40.7851V33.5624C16.6906 22.0837 28.9205 12.745 43.9527 12.745H489.046C504.079 12.745 516.308 22.0837 516.308 33.5624V40.7851H16.6906Z" fill="#112B66"/>
<path d="M275.402 299.09H257.598C252.99 299.09 249.252 301.943 249.252 305.463C249.252 308.982 252.989 311.836 257.598 311.836H275.402C280.01 311.836 283.748 308.983 283.748 305.463C283.748 301.943 280.011 299.09 275.402 299.09Z" fill="#112B66"/>
<path d="M106.266 149.545H52.8545C48.2459 149.545 44.5087 152.398 44.5087 155.918V251.083C44.5087 254.602 48.2449 257.456 52.8545 257.456H106.266C110.874 257.456 114.612 254.603 114.612 251.083V155.918C114.612 152.399 110.875 149.545 106.266 149.545ZM97.9211 244.71H61.2003V162.291H97.9201V244.71H97.9211Z" fill="#84CAFF"/>
<path d="M195.285 108.76H141.874C137.265 108.76 133.528 111.613 133.528 115.133V251.083C133.528 254.602 137.264 257.455 141.874 257.455H195.285C199.894 257.455 203.631 254.602 203.631 251.083V115.133C203.631 111.614 199.894 108.76 195.285 108.76ZM186.939 244.71H150.22V121.505H186.939V244.71Z" fill="#84CAFF"/>
<path d="M284.303 74.7729H230.892C226.284 74.7729 222.546 77.6259 222.546 81.1458V251.083C222.546 254.603 226.282 257.456 230.892 257.456H284.303C288.912 257.456 292.649 254.603 292.649 251.083V81.145C292.649 77.6259 288.913 74.7729 284.303 74.7729ZM275.959 244.71H239.239V87.5179H275.959V244.71Z" fill="#84CAFF"/>
<path d="M438.496 109.714C438.49 109.712 438.485 109.71 438.48 109.709C429.045 106.824 419.102 105.362 408.93 105.362C365.06 105.362 329.369 132.616 329.369 166.115C329.369 199.614 365.06 226.868 408.93 226.868C447.644 226.868 480.59 205.755 487.27 176.668C487.27 176.667 487.271 176.666 487.271 176.665C488.08 173.143 488.491 169.594 488.491 166.116C488.491 141.142 468.867 119.004 438.496 109.714ZM408.93 214.121C374.264 214.121 346.061 192.585 346.061 166.114C346.061 139.643 374.264 118.107 408.93 118.107C414.16 118.107 419.311 118.597 424.325 119.565L401.181 163.747C399.243 167.447 402.351 171.699 407.48 172.389L468.852 180.66C460.709 200.381 436.698 214.121 408.93 214.121ZM471.742 168.107L420.491 161.201L439.824 124.297C459.487 132.727 471.8 148.531 471.8 166.114C471.8 166.775 471.781 167.439 471.742 168.107Z" fill="#53B1FD"/>
</g>
<defs>
<clipPath id="clip0_603_144">
<rect width="533" height="407" fill="white"/>
</clipPath>
</defs>
</svg>
