<svg width="55" height="44" viewBox="0 0 55 44" fill="none" xmlns="http://www.w3.org/2000/svg">
<path d="M3.32429 43.5C2.39658 43.5 1.61061 43.1875 0.966364 42.5625C0.322121 41.9375 0 41.2 0 40.35C0 39.45 0.322121 38.6875 0.966364 38.0625C1.61061 37.4375 2.39658 37.125 3.32429 37.125C4.252 37.125 5.02509 37.4375 5.64356 38.0625C6.26204 38.6875 6.57127 39.45 6.57127 40.35C6.57127 41.25 6.26204 42 5.64356 42.6C5.02509 43.2 4.252 43.5 3.32429 43.5ZM15.4618 42V38.625H54.1164V42H15.4618ZM3.32429 24.975C2.39658 24.975 1.61061 24.6625 0.966364 24.0375C0.322121 23.4125 0 22.65 0 21.75C0 20.85 0.322121 20.0875 0.966364 19.4625C1.61061 18.8375 2.39658 18.525 3.32429 18.525C4.252 18.525 5.02509 18.85 5.64356 19.5C6.26204 20.15 6.57127 20.9 6.57127 21.75C6.57127 22.6 6.26204 23.35 5.64356 24C5.02509 24.65 4.252 24.975 3.32429 24.975ZM15.4618 23.475V20.025H54.1164V23.475H15.4618ZM3.32429 6.375C2.39658 6.375 1.61061 6.0625 0.966364 5.4375C0.322121 4.8125 0 4.075 0 3.225C0 2.325 0.322121 1.5625 0.966364 0.9375C1.61061 0.3125 2.39658 0 3.32429 0C4.252 0 5.02509 0.3125 5.64356 0.9375C6.26204 1.5625 6.57127 2.325 6.57127 3.225C6.57127 4.125 6.24915 4.875 5.60491 5.475C4.96067 6.075 4.20046 6.375 3.32429 6.375ZM15.4618 4.875V1.5H54.1164V4.875H15.4618Z" fill="#112B66"/>
</svg>
