<svg width="57" height="51" viewBox="0 0 57 51" fill="none" xmlns="http://www.w3.org/2000/svg">
<path d="M34.8572 34.0208H38.177V7.39583H28.2178V10.3542H34.8572V34.0208ZM15.3538 41.4167C13.8046 41.4167 12.5187 40.9611 11.4963 40.0499C10.4716 39.1368 9.95921 37.9899 9.95921 36.6094V4.80729C9.95921 3.42674 10.4716 2.27989 11.4963 1.36675C12.5187 0.455583 13.8046 0 15.3538 0H51.041C52.5902 0 53.8771 0.455583 54.9018 1.36675C55.9243 2.27989 56.4355 3.42674 56.4355 4.80729V36.6094C56.4355 37.9899 55.9243 39.1368 54.9018 40.0499C53.8771 40.9611 52.5902 41.4167 51.041 41.4167H15.3538ZM15.3538 38.4583H51.041C51.5943 38.4583 52.0778 38.2729 52.4917 37.9022C52.9078 37.5334 53.1158 37.1024 53.1158 36.6094V4.80729C53.1158 4.31424 52.9078 3.88331 52.4917 3.5145C52.0778 3.14372 51.5943 2.95833 51.041 2.95833H15.3538C14.8005 2.95833 14.3169 3.14372 13.9031 3.5145C13.487 3.88331 13.279 4.31424 13.279 4.80729V36.6094C13.279 37.1024 13.487 37.5334 13.9031 37.9022C14.3169 38.2729 14.8005 38.4583 15.3538 38.4583ZM5.39457 50.2917C3.84536 50.2917 2.55841 49.8361 1.53372 48.9249C0.511239 48.0118 0 46.8649 0 45.4844V10.724H3.31974V45.4844C3.31974 45.9774 3.52778 46.4084 3.94385 46.7772C4.35771 47.1479 4.84128 47.3333 5.39457 47.3333H44.4015V50.2917H5.39457Z" fill="#112B66"/>
</svg>
